<svg id="Layer_1" data-name="Layer 1" xmlns="http://www.w3.org/2000/svg" viewBox="0 0 1064.23 601.07"><defs><style>.cls-1,.cls-10,.cls-11,.cls-12,.cls-13,.cls-14,.cls-15,.cls-16,.cls-17,.cls-18,.cls-19,.cls-2,.cls-3,.cls-4,.cls-5,.cls-6,.cls-7,.cls-8,.cls-9{fill:none;stroke-miterlimit:10;}.cls-1,.cls-10,.cls-11,.cls-12,.cls-13,.cls-14,.cls-15,.cls-16,.cls-17,.cls-18,.cls-19,.cls-2,.cls-5,.cls-6,.cls-7,.cls-8,.cls-9{stroke:#231f20;}.cls-1{stroke-width:1.1px;}.cls-3{stroke:#21409a;}.cls-4{stroke:#2e3192;}.cls-5{stroke-width:0.95px;}.cls-6{stroke-width:0.99px;}.cls-7{stroke-width:0.64px;}.cls-8{stroke-width:0.71px;}.cls-9{stroke-width:1.02px;}.cls-10{stroke-width:1.02px;}.cls-11{stroke-width:1.17px;}.cls-12{stroke-width:1.03px;}.cls-13{stroke-width:1.02px;}.cls-14{stroke-width:0.33px;}.cls-15{stroke-width:0.33px;}.cls-16{stroke-width:1.21px;}.cls-17{stroke-width:1.04px;}.cls-18{stroke-width:0.99px;}.cls-19{stroke-width:0.95px;}</style></defs><title>company iconss</title><polygon class="cls-1" points="383.01 40.05 383.01 0.55 285.76 0.55 285.76 127.55 440.76 127.55 440.76 40.05 383.01 40.05"/><path class="cls-1" d="M1248.59,35.81v118.5h-24v27.8l-48.15-27.8h-50.67c-27.74-3.78-49.18-28.75-49.18-59,0-32.86,25.3-59.5,56.5-59.5Z" transform="translate(-201.89 -21.96)"/><line class="cls-2" x1="898.7" y1="43.85" x2="1023.7" y2="43.85"/><line class="cls-2" x1="898.7" y1="64.85" x2="1023.7" y2="64.85"/><line class="cls-2" x1="898.7" y1="85.85" x2="1023.7" y2="85.85"/><line class="cls-2" x1="898.7" y1="106.85" x2="1023.7" y2="106.85"/><path class="cls-3" d="M1251.91,275.11v89.6a14.45,14.45,0,0,1-14.45,14.45h-9.55V407l-48.15-27.8h-50.67c-27.74-3.78-49.18-28.75-49.18-59,0-32.86,25.3-59.5,56.5-59.5h101A14.45,14.45,0,0,1,1251.91,275.11Z" transform="translate(-201.89 -21.96)"/><path class="cls-2" d="M1255.91,283.45v89.6c0,8-7,14.45-15.68,14.45h-10.36v27.8l-52.25-27.8h-55c-30.1-3.78-53.36-28.75-53.36-59,0-32.86,27.45-59.5,61.31-59.5h109.65C1248.88,269,1255.91,275.47,1255.91,283.45Z" transform="translate(-201.89 -21.96)"/><line class="cls-4" x1="909.91" y1="267.28" x2="1034.91" y2="267.28"/><line class="cls-4" x1="909.91" y1="288.28" x2="1034.91" y2="288.28"/><line class="cls-4" x1="909.91" y1="309.28" x2="1034.91" y2="309.28"/><line class="cls-4" x1="909.91" y1="330.28" x2="1034.91" y2="330.28"/><line class="cls-5" x1="904.59" y1="275.62" x2="1028.12" y2="275.62"/><line class="cls-5" x1="904.59" y1="296.62" x2="1028.12" y2="296.62"/><line class="cls-5" x1="904.59" y1="317.62" x2="1028.12" y2="317.62"/><line class="cls-5" x1="904.59" y1="338.62" x2="1028.12" y2="338.62"/><line class="cls-4" x1="924.19" y1="472.62" x2="1049.19" y2="472.62"/><line class="cls-4" x1="924.19" y1="493.62" x2="1049.19" y2="493.62"/><line class="cls-4" x1="924.19" y1="514.62" x2="1049.19" y2="514.62"/><line class="cls-4" x1="924.19" y1="535.62" x2="1049.19" y2="535.62"/><line class="cls-5" x1="918.87" y1="480.96" x2="1042.4" y2="480.96"/><line class="cls-5" x1="918.87" y1="501.96" x2="1042.4" y2="501.96"/><line class="cls-5" x1="918.87" y1="522.96" x2="1042.4" y2="522.96"/><line class="cls-5" x1="918.87" y1="543.96" x2="1042.4" y2="543.96"/><path class="cls-4" d="M1265.62,478.24v89.6a14.45,14.45,0,0,1-14.45,14.45h-9.55v27.8l-48.15-27.8H1142.8c-27.74-3.78-49.18-28.75-49.18-59,0-32.86,25.3-59.5,56.5-59.5h101A14.45,14.45,0,0,1,1265.62,478.24Z" transform="translate(-201.89 -21.96)"/><path class="cls-6" d="M1251.17,582.28h-9.55l-.11,39.87L1189,590.63h-53.8a59.68,59.68,0,0,1-52.22-59c0-32.86,26.86-59.5,60-59.5h107.3c8.47,0,15.34,6.47,15.34,14.45" transform="translate(-201.89 -21.96)"/><polygon class="cls-1" points="794.61 56.12 719.61 12.81 719.61 99.42 794.61 56.12"/><polygon class="cls-7" points="718.48 56.12 675.18 31.12 675.18 81.12 718.48 56.12"/><polygon class="cls-2" points="784.74 190.48 709.74 147.18 709.74 233.78 784.74 190.48"/><polygon class="cls-2" points="708.61 190.48 665.31 165.48 665.31 215.48 708.61 190.48"/><polygon class="cls-2" points="784.74 198.38 709.74 155.08 709.74 241.68 784.74 198.38"/><polygon class="cls-2" points="708.61 198.38 665.31 173.38 665.31 223.38 708.61 198.38"/><path class="cls-2" d="M1020.6,530l-.39.22-81.42,47V494l7.17-6.86v74.17l74.19-31.07Z" transform="translate(-201.89 -21.96)"/><path class="cls-2" d="M1020.21,530.25l-.06,0L946,486.52" transform="translate(-201.89 -21.96)"/><path class="cls-8" d="M939.43,528.94l-.28.16L881.63,562.3V503.47l5.07-4.85V551l52.41-21.95Z" transform="translate(-201.89 -21.96)"/><path class="cls-8" d="M939.15,529.09l0,0L886.7,498.2" transform="translate(-201.89 -21.96)"/><path class="cls-2" d="M656.69,525c.14,7.67-5.48,14.19-13.15,16l-4,.49-50.87.8-18.18.28-24.83.39c-26.9.42-49.64-17.09-55-40.69h0c-.19-1.66-.29-3.33-.32-5l-1.33-78.93,0-.95.6-.42,1.39,0,5.07-.09,20.28-.34,58.27-1h.66c9.61-.15,17.54,7,17.7,15.91l.13,7.13c.16,8.93,8.09,16.06,17.69,15.91L638,454c9.6-.15,17.53,7,17.69,15.92v.72a1.21,1.21,0,0,1,0,.19Z" transform="translate(-201.89 -21.96)"/><path class="cls-2" d="M656.68,529.88c.12,6.07-3.51,11.43-9,14.28a18.9,18.9,0,0,1-6.55,1.92l-1.3.15a20,20,0,0,1-2,.14l-51.78.78-18.87.28-25.77.39c-27.93.42-51.53-17.1-57.13-40.72h0a49.4,49.4,0,0,1-.33-5L482.73,434l4.44-12.36,1.82,0h.86l21-.34,60.49-1h.68c10-.15,18.21,7,18.38,15.92l.13,7.14c.17,8.94,8.4,16.07,18.36,15.92l28.34-.43c10-.15,18.2,7,18.37,15.94v.72a1.21,1.21,0,0,1,0,.19l.95,51.15Z" transform="translate(-201.89 -21.96)"/><line class="cls-2" x1="287.73" y1="396.13" x2="281.68" y2="409.85"/><path class="cls-9" d="M656.8,326.58a15.44,15.44,0,0,1-.06,1.67h0c-.64,6.93-6,12.64-13.09,14.29l-4,.49-50.87.8-18.18.28-24.83.39c-26.9.42-49.64-17.09-55-40.69h0c-.19-1.66-.29-3.33-.32-5l-1.27-75.66-.06-3.27v-.48l.89-.89,1.09,0,5.07-.09,20.28-.34,58.27-1h.66c9.61-.15,17.54,7,17.7,15.91l.13,7.13c.16,8.93,8.09,16.06,17.69,15.91l27.3-.43c9.6-.15,17.53,7,17.69,15.92v.72a1.21,1.21,0,0,1,0,.19Z" transform="translate(-201.89 -21.96)"/><path class="cls-9" d="M490.37,298.78c0,1.7.13,3.37.32,5h0c5.39,23.6,28.13,41.11,55,40.69l24.83-.39,18.18-.28,50.87-.8,4-.49c7.11-1.65,12.45-7.36,13.09-14.29l.06,3.16c.12,6.07-3.52,11.43-9,14.28a18.58,18.58,0,0,1-6.54,1.92l-1.3.15a20.16,20.16,0,0,1-2,.14l-51.78.78-18.87.28-25.78.39c-27.92.42-51.53-17.1-57.12-40.72h0a49.4,49.4,0,0,1-.34-5l-1.36-77.86,0-1.14,0-.95.62-.42" transform="translate(-201.89 -21.96)"/><polyline class="cls-10" points="280.56 202.87 283.1 200.33 286.92 196.51"/><path class="cls-2" d="M395.64,61.59V153a14.79,14.79,0,0,1-14.79,14.79H227.43A14.79,14.79,0,0,1,212.64,153V54.81a12,12,0,0,0,4.53,3.82l83.67,41.93L384.5,58.63a11.7,11.7,0,0,0,6.61-11.92A26.58,26.58,0,0,1,395.64,61.59Z" transform="translate(-201.89 -21.96)"/><path class="cls-2" d="M210.55,46.69c-3.35,4.54-6.91,11.63-6.91,18.83v79.65c0,15.8,11.76,28.6,26.27,28.6H377.28c9.91,0,17.95-8.74,17.95-19.53" transform="translate(-201.89 -21.96)"/><path class="cls-2" d="M215.88,41.74c.55-.21.88-.06.88.53" transform="translate(-201.89 -21.96)"/><path class="cls-2" d="M384.51,58.63,301,100.56,217.55,58.63A12,12,0,0,1,213,54.81a11.77,11.77,0,0,1-2.09-8.07c2-2.67,3.86-4.46,4.93-4.87h0c.09-.14.19-.27.29-.4a14.74,14.74,0,0,1,11.65-5.69h1.1a37.83,37.83,0,0,1,8.64-1H368.8a26.82,26.82,0,0,1,22.31,11.94A11.7,11.7,0,0,1,384.51,58.63Z" transform="translate(-201.89 -21.96)"/><path class="cls-2" d="M324.43,476" transform="translate(-201.89 -21.96)"/><path class="cls-11" d="M368.52,531.89" transform="translate(-201.89 -21.96)"/><path class="cls-2" d="M391.22,439v91.39a14.8,14.8,0,0,1-14.8,14.79h-153a14.79,14.79,0,0,1-14.79-14.79V432.21a12,12,0,0,0,4.52,3.82L296.63,478,380.11,436a11.7,11.7,0,0,0,6.6-11.92A26.63,26.63,0,0,1,391.22,439Z" transform="translate(-201.89 -21.96)"/><path class="cls-2" d="M211.48,419.26c.55-.21.88-.06.88.53" transform="translate(-201.89 -21.96)"/><path class="cls-2" d="M380.11,436,296.63,478,213.15,436a12,12,0,0,1-4.52-3.82,11.77,11.77,0,0,1-2.09-8.07c2-2.67,3.86-4.46,4.93-4.87h0c.09-.14.19-.27.29-.4a14.74,14.74,0,0,1,11.65-5.69h1.1a37.83,37.83,0,0,1,8.64-1H364.4a26.82,26.82,0,0,1,22.31,11.94A11.7,11.7,0,0,1,380.11,436Z" transform="translate(-201.89 -21.96)"/><path class="cls-12" d="M392,430.08A25.58,25.58,0,0,1,396.74,445v91.39c0,8.17-7,14.79-15.68,14.79H219c-8.65,0-15.67-6.62-15.67-14.79V438.18" transform="translate(-201.89 -21.96)"/><path class="cls-13" d="M385.05,443l-87.37,41.93L210.31,443a12.43,12.43,0,0,1-4.73-3.82,11.38,11.38,0,0,1-2.19-8.07c2.06-2.67,4-4.46,5.16-4.87h0c.09-.14.2-.27.3-.4a15.69,15.69,0,0,1,12.19-5.69h1.15a41.36,41.36,0,0,1,9-1H368.61a29.13,29.13,0,0,1,7.59,1A28.08,28.08,0,0,1,392,431.08,11.6,11.6,0,0,1,385.05,443Z" transform="translate(-201.89 -21.96)"/><polygon class="cls-1" points="803.65 350.19 728.65 393.49 728.65 306.89 796.82 346.24 803.65 350.19"/><polygon class="cls-14" points="782.74 350.12 742.74 370.12 742.74 330.12 782.74 350.12"/><polygon class="cls-15" points="712.45 350.06 692.45 360.06 692.45 340.06 712.45 350.06"/><polygon class="cls-7" points="727.51 350.19 684.22 375.19 684.22 325.19 720.67 346.24 727.51 350.19"/><path class="cls-2" d="M539.71,386.94" transform="translate(-201.89 -21.96)"/><path class="cls-16" d="M461.1,380.54" transform="translate(-201.89 -21.96)"/><path class="cls-17" d="M387.61,223.64a20.49,20.49,0,0,1,8.32,11.09,18.81,18.81,0,0,1,.69,6v93.3c0,8.34-7,15.1-15.73,15.1H218.33c-8.68,0-15.71-6.76-15.71-15.1V233.84" transform="translate(-201.89 -21.96)"/><path class="cls-18" d="M384.38,231l-.54.63a12.45,12.45,0,0,1-3.54,2.65l-82.49,41.93-59.53-30.26-2.52-1.28-20.43-10.39a11.9,11.9,0,0,1-4.47-3.82,11.69,11.69,0,0,1-2.11-6.4q0-.33,0-.66a2.68,2.68,0,0,1,0-.4,14.37,14.37,0,0,1,1.81-1.84,15.64,15.64,0,0,1,8.08-3.61h0a25.11,25.11,0,0,1,2.77-.15h1.46a65.21,65.21,0,0,1,11.4-1H368.44a29.15,29.15,0,0,1,7.59,1,28.53,28.53,0,0,1,10.84,5.6A11.78,11.78,0,0,1,384.38,231Z" transform="translate(-201.89 -21.96)"/><path class="cls-2" d="M391.1,233.84a26.5,26.5,0,0,0-3.48-10.2c-.24-.22-.49-.44-.75-.65a11.72,11.72,0,0,1-2.51,8l-.55.63a12.55,12.55,0,0,1-3.57,2.65L297.1,276.21l-60-30.26-2.54-1.28L214,234.28a12,12,0,0,1-4.5-3.82V240.6l17.28,8.22.58.28h0l69.29,33-.19.09L226.67,249.1h0l-.58-.28-17.35-8.22v88a14.79,14.79,0,0,0,14.79,14.79h153a14.8,14.8,0,0,0,14.8-14.79V237.24A25.44,25.44,0,0,0,391.1,233.84Z" transform="translate(-201.89 -21.96)"/><path class="cls-19" d="M202.36,238a22.75,22.75,0,0,1,.85-5.28,22.31,22.31,0,0,1,2.59-5.9c.09-.15.19-.29.28-.44a16,16,0,0,1,1.21-1.6,9.55,9.55,0,0,1,1.28-.89,6.33,6.33,0,0,1,.7-.35" transform="translate(-201.89 -21.96)"/></svg>